<svg xmlns="http://www.w3.org/2000/svg" width="268.116" height="44.103" viewBox="0 0 70.939 11.669" xmlns:v="https://vecta.io/nano"><defs><linearGradient id="A" x1="7.674" y1="13.941" x2="78.997" y2="14.891" gradientUnits="userSpaceOnUse"><stop offset="0" stop-color="#00b3ff"/><stop offset="1" stop-color="#fff"/></linearGradient><linearGradient id="B" x1="-1180.939" y1="140.644" x2="313.586" y2="160.545" gradientUnits="userSpaceOnUse"><stop offset="0" stop-color="#00b3ff"/><stop offset="1" stop-color="#fff"/></linearGradient></defs><g transform="translate(-8.051 -8.36)"><path d="M305.868 76.708c-.803-1.165-2.217-1.747-3.609-1.484-6.065 1.226-12.316 1.219-18.379-.022-10.652-2.255-17.475-6.937-28.782-14.692-5.963-4.09-13.142-9.012-22.667-14.806-.012-.007-.024-.015-.036-.022l-6.162-3.674c-22.853-13.344-49.815-13.349-80.134-.014l-.002.002a3.55 3.55 0 0 0-1.165.825c-.218.186-.414.399-.583.633L115.75 83.506v-4.637a3.58 3.58 0 0 0-3.582-3.582h-2.865V54.308c3.73-2.986 6.049-7.392 6.401-12.157a17.2 17.2 0 0 0-4.551-12.964c-3.254-3.502-7.816-5.49-12.596-5.49a17.19 17.19 0 0 0-17.146 18.454c.351 4.765 2.671 9.171 6.401 12.157v20.979h-2.865a3.58 3.58 0 0 0-3.582 3.582v29.609a3.58 3.58 0 0 0 3.582 3.582h2.865v152.579a3.58 3.58 0 0 0 3.582 3.582h14.327a3.58 3.58 0 0 0 3.582-3.582V112.059h2.865a3.58 3.58 0 0 0 3.582-3.582V103.7l29.124 30.869c1.33 1.414 3.548 1.506 4.991.208 19.945-12.379 39.851-17.213 59.176-14.363 7.914 1.168 13.312 3.251 19.027 5.456 4.936 1.903 10.037 3.873 17.013 5.405 12.159 2.671 25.183 2.753 38.708.244v.002c7.124-1.353 14.129-3.273 20.945-5.746.735-.264 1.364-.762 1.791-1.417 4.636-7.109 7.049-15.439 6.933-23.926a42.73 42.73 0 0 0-7.588-23.725zm-203.73 184.348h-7.163V112.057h7.163zm6.447-156.164H88.528V82.447h20.058zM94.975 75.283V57.713a17.13 17.13 0 0 0 7.163 0v17.571zm3.582-24.355c-2.661 0-5.211-1.056-7.092-2.937a10.03 10.03 0 0 1 0-14.183c1.881-1.881 4.431-2.937 7.092-2.937a10.03 10.03 0 0 1 7.092 2.937c1.88 1.881 2.937 4.433 2.937 7.092a10.04 10.04 0 0 1-2.94 7.088c-1.881 1.88-4.43 2.937-7.088 2.94zm18.238 43.437l17.073-23.911-.002.002c-3.13 14.653-2.427 29.864 2.04 44.165zm30.577 29.749l-.002.002a80.22 80.22 0 0 1-8.262-35.493c.005-12.309 2.841-24.451 8.292-35.486 5.112 11.538 7.672 24.043 7.508 36.663-.176 11.83-2.741 23.501-7.539 34.316zm42.882-42.552h-.002c-.529 11.223-3.241 22.234-7.98 32.42a100.97 100.97 0 0 0-26.839 9.42 94.82 94.82 0 0 0 6.64-33.502 95.05 95.05 0 0 0-9.59-42.834c10.17-4.145 19.88-6.652 29.131-7.522a87.78 87.78 0 0 1 8.639 42.018zm42.977 4.846c-.293 10.742-2.369 21.361-6.145 31.422a79.96 79.96 0 0 0-17-4.502c-3.948-.583-7.933-.877-11.922-.877-2.519 0-5.043.118-7.573.355 4.013-9.839 6.319-20.291 6.817-30.905.655-14.668-2.106-29.286-8.068-42.703 11.695-.019 23.184 3.085 33.279 8.994l5.036 2.993c4.02 11.294 5.911 23.239 5.574 35.224zm32.762 39.754c-6.51.128-13.014-.505-19.377-1.883-4.37-.981-8.661-2.282-12.838-3.896a104.39 104.39 0 0 0 3.172-63.403c5.49 3.534 10.073 6.676 14.096 9.435 5.471 3.752 10.068 6.897 14.658 9.451h-.002a98.12 98.12 0 0 1 .29 50.295zm35.155-6.72c-6.086 2.149-12.326 3.832-18.668 5.033a102.25 102.25 0 0 1-9.009 1.267 105.09 105.09 0 0 0 .534-45.972c2.731 1.027 5.535 1.842 8.39 2.439a53.03 53.03 0 0 0 18.79.455 35.53 35.53 0 0 1 5.11 18.395 35.54 35.54 0 0 1-5.147 18.384z" fill="url(#B)" transform="matrix(.0477 0 0 .0477 64.031443 7.229426)"/><g fill="url(#A)"><path d="M10.412 17.978c.095 0 .169-.053.212-.148l1.09-2.572c.36-.878.698-1.894.868-2.572h.063l.074 3.037.138 2.085c.011.116.074.169.18.169h1.535c.106 0 .18-.053.222-.138l3.154-7.218c.053-.127-.011-.212-.148-.212h-1.418c-.106 0-.169.053-.212.148l-.878 2.254-1.09 3.27h-.063l-.085-3.059-.18-2.339c-.011-.116-.074-.169-.19-.169H12.19c-.095 0-.169.053-.212.148l-.91 2.244-1.111 3.175h-.053l-.021-3.101-.106-2.392c0-.116-.085-.18-.19-.18H8.232c-.116 0-.19.074-.18.19l.635 7.207c.011.116.074.169.19.169z"/><path d="M20.456 10.612c.021-.116-.042-.201-.169-.201h-1.302c-.116 0-.18.063-.201.169l-1.27 7.197c-.011.116.053.201.169.201h1.312c.106 0 .169-.064.19-.169z"/><path d="M22.149 17.978c.106 0 .169-.064.191-.169l.275-1.587c.18-.974.307-2.127.402-3.133l.042-.021a19.32 19.32 0 0 0 .73 2.519l.836 2.244c.042.106.116.148.212.148h1.386c.116 0 .18-.064.201-.169l1.27-7.197c.021-.116-.042-.201-.169-.201h-1.291c-.106 0-.169.063-.19.169l-.317 1.82-.423 2.932-.053.011-.656-2.275-.836-2.508c-.021-.106-.106-.148-.212-.148h-1.397c-.106 0-.18.063-.19.169l-1.27 7.197c-.021.116.042.201.159.201z"/><path d="M30.627 17.978c1.778 0 2.984-.709 3.344-2.794l.307-1.746c.36-2.095-.847-3.027-2.392-3.027h-2.487c-.106 0-.18.063-.19.169l-1.27 7.197c-.021.116.042.201.159.201zm.011-6.032h1.058c.751 0 1.058.37.9 1.281l-.328 1.884c-.169.942-.635 1.333-1.376 1.333h-1.048z"/><path d="M40.384 16.01c.349-1.789-1.185-2.328-2.148-2.625-.677-.201-1.122-.381-1.037-.889.085-.423.444-.698 1.016-.698a3.26 3.26 0 0 1 1.704.519c.095.063.18.053.254-.032l.741-.952c.074-.095.063-.191-.032-.254-.73-.54-1.471-.804-2.476-.804-1.429 0-2.603.571-2.857 2.053-.254 1.503.773 2.201 1.905 2.529.783.222 1.323.434 1.238.963-.085.497-.624.741-1.238.741-.656 0-1.217-.243-1.799-.698-.095-.074-.191-.074-.265.021l-.762.942c-.074.095-.063.191.021.265.72.635 1.513 1.027 2.625 1.027 1.376 0 2.773-.455 3.111-2.106z"/><path d="M42.596 10.411c-.106 0-.18.063-.19.169l-1.27 7.197c-.021.116.042.201.159.201h1.312c.116 0 .18-.064.201-.169l.37-2.085h1.175c1.704 0 2.773-.974 3.048-2.476.307-1.683-.624-2.836-2.402-2.836zm1.789 3.799h-.942l.402-2.275h.921c.709 0 1.069.402.942 1.175-.116.709-.571 1.101-1.323 1.101z"/><path d="M53.603 10.612c.021-.116-.042-.201-.169-.201h-4.35c-.106 0-.169.063-.19.169l-1.281 7.197c-.011.116.042.201.169.201h4.519a.18.18 0 0 0 .201-.169l.191-1.154c.011-.116-.053-.201-.169-.201h-2.995l.275-1.577h2.551c.106 0 .169-.063.19-.169l.201-1.111c.021-.127-.042-.201-.159-.201h-2.519l.265-1.471h2.879c.106 0 .169-.063.191-.169z"/><path d="M59.656 10.612c.021-.116-.042-.201-.169-.201h-4.35c-.106 0-.169.063-.19.169l-1.281 7.197c-.011.116.042.201.169.201h4.519a.18.18 0 0 0 .201-.169l.19-1.154c.011-.116-.053-.201-.169-.201h-2.995l.275-1.577h2.551c.106 0 .169-.063.19-.169l.201-1.111c.021-.127-.042-.201-.159-.201h-2.519l.265-1.471h2.879c.106 0 .169-.063.19-.169z"/><path d="M62.408 17.978c1.778 0 2.984-.709 3.344-2.794l.307-1.746c.36-2.095-.847-3.027-2.392-3.027H61.18c-.106 0-.18.063-.191.169l-1.27 7.197c-.021.116.042.201.159.201zm.011-6.032h1.058c.751 0 1.058.37.9 1.281l-.328 1.884c-.169.942-.635 1.333-1.376 1.333h-1.048z"/></g></g></svg>